<?xml version="1.0"?>
<svg width="32" height="32" xmlns="http://www.w3.org/2000/svg" xmlns:svg="http://www.w3.org/2000/svg" preserveAspectRatio="xMidYMid meet">
 <metadata>Created by potrace 1.10, written by Peter Selinger 2001-2011</metadata>
 <g class="layer">
  <title>Layer 1</title>
  <g fill="#ff42ef" id="svg_1">
   <path d="m0.846166,16.193467l0.026115,14.919924l14.876228,-0.051801l14.876228,-0.051801l-0.006834,-3.904279c-0.006777,-3.871744 -0.006834,-3.904279 -0.07295,-3.904049c-0.042976,0.00015 -0.06606,0.032766 -0.06597,0.083893c0.000407,0.232398 -0.476953,1.368167 -0.826322,1.968973c-0.441655,0.759159 -1.523648,2.087601 -1.893494,2.321287c-0.036323,0.023366 -0.118847,0.093373 -0.181552,0.154016c-0.062713,0.055994 -0.174949,0.149345 -0.247587,0.200725c-0.072639,0.051381 -0.151873,0.11208 -0.174973,0.135401c-0.049498,0.0513 -0.657087,0.443846 -0.76609,0.495354c-0.046241,0.023401 -0.201477,0.102957 -0.346803,0.177831c-0.231196,0.121653 -0.531815,0.243547 -1.040596,0.42659c-0.082597,0.028175 -0.251113,0.075242 -0.373388,0.098908c-0.125581,0.023677 -0.237922,0.056604 -0.254427,0.070606c-0.016505,0.014001 -0.327171,0.061563 -0.684136,0.09999c-0.677573,0.072079 -1.454499,0.042249 -1.894386,-0.077067c-0.099224,-0.027542 -0.26458,-0.06415 -0.363788,-0.082397c-0.343912,-0.059226 -1.131269,-0.381843 -1.548234,-0.626734c-0.397114,-0.235664 -0.71155,-0.453024 -0.830788,-0.582753c-0.158981,-0.171422 -0.267862,-0.050195 -0.267268,0.289105c0.00013,0.074367 -0.022742,0.22783 -0.052307,0.334837c-0.091953,0.348919 -0.256293,0.893305 -0.328679,1.088772c-0.20401,0.544524 -0.352145,0.902934 -0.368674,0.902992c-0.013223,0.000046 -0.076075,-0.022975 -0.138934,-0.050644c-0.062851,-0.023021 -0.188546,-0.064415 -0.28115,-0.087333c-0.277795,-0.059456 -0.813885,-0.369004 -1.158203,-0.660628c-0.099321,-0.083318 -0.417324,-0.449401 -0.536634,-0.620961c-0.059651,-0.083456 -0.122584,-0.152956 -0.135807,-0.15291c-0.016529,0.000058 -0.09569,0.102589 -0.17481,0.22836c-0.296719,0.461183 -0.946983,1.025853 -1.383068,1.190051c-0.09911,0.037529 -0.234551,0.093776 -0.297321,0.117235c-0.062762,0.028106 -0.178425,0.051749 -0.251153,0.052002c-0.138845,0.000483 -0.138845,0.000483 -0.284944,-0.366198c-0.195874,-0.473412 -0.428469,-1.151207 -0.461837,-1.327714c-0.013362,-0.078969 -0.049994,-0.232225 -0.07995,-0.34832c-0.033262,-0.116084 -0.066645,-0.301887 -0.080072,-0.418039c-0.01683,-0.171917 -0.033433,-0.213691 -0.09626,-0.222768c-0.042992,-0.009146 -0.132176,0.032996 -0.198179,0.098298c-0.498342,0.480477 -1.951784,1.12696 -2.764855,1.22275c-0.109068,0.014324 -0.300749,0.047527 -0.429636,0.071216c-0.297419,0.061459 -1.057759,0.064107 -1.355382,0.009368c-0.12567,-0.02745 -0.343912,-0.059226 -0.479475,-0.072698c-0.241366,-0.022399 -0.330664,-0.045328 -0.992188,-0.247536c-0.357225,-0.110308 -0.823672,-0.294603 -0.985837,-0.396293c-0.05957,-0.036976 -0.132347,-0.064611 -0.165405,-0.064496c-0.029752,0.000104 -0.086008,-0.032236 -0.119132,-0.069305c-0.036429,-0.037057 -0.086074,-0.06942 -0.109214,-0.069339c-0.095869,0.000334 -0.982905,-0.610111 -1.350413,-0.929542c-0.797933,-0.699066 -1.576438,-1.6306 -1.964489,-2.354333c-0.04975,-0.092786 -0.109434,-0.194834 -0.135946,-0.231926c-0.023206,-0.037103 -0.136011,-0.269109 -0.252138,-0.5104c-0.242237,-0.51973 -0.448239,-1.113954 -0.448557,-1.295224c0.002875,-0.246353 0.98527,-1.816143 1.628548,-2.594596c0.412358,-0.49877 1.339636,-1.450187 1.537766,-1.576372c0.026414,-0.018684 0.095739,-0.074701 0.148551,-0.121365c0.17823,-0.1633 0.950883,-0.686564 1.238213,-0.845596c0.155236,-0.079556 0.323662,-0.17775 0.373184,-0.215107c0.052828,-0.037368 0.122202,-0.065497 0.15526,-0.065612c0.036364,-0.000127 0.112349,-0.028279 0.171789,-0.06567c0.227866,-0.135585 0.475657,-0.220111 1.215829,-0.413256c0.535308,-0.136655 2.098941,-0.156044 2.578514,-0.027571c0.390267,0.100897 1.200667,0.367657 1.356179,0.446132c0.64519,0.313816 0.969519,0.517198 1.287399,0.813562c0.115899,0.111148 0.231758,0.199056 0.254899,0.198976c0.092563,-0.000322 0.039353,-0.181408 -0.143013,-0.492188c-0.059692,-0.106696 -0.10945,-0.20413 -0.109475,-0.218074c-0.000024,-0.013944 -0.049807,-0.125322 -0.106226,-0.250621c-0.238882,-0.491854 -0.548008,-1.452909 -0.727906,-2.24244c-0.036657,-0.1672 -0.089908,-0.371525 -0.116501,-0.455096c-0.026593,-0.083571 -0.046623,-0.195053 -0.046713,-0.24618c-0.000098,-0.055775 -0.020177,-0.195145 -0.046835,-0.3159c-0.213225,-0.942797 -0.288971,-2.666934 -0.178924,-4.010584c0.029134,-0.353348 0.06821,-0.692787 0.084617,-0.762563c0.019721,-0.06514 0.032733,-0.186033 0.032595,-0.265048c0.003159,-0.083675 0.022791,-0.199942 0.049124,-0.265106c0.026333,-0.065163 0.046005,-0.158192 0.049221,-0.20933c-0.000252,-0.144086 0.229464,-1.111666 0.374098,-1.581616c0.506226,-1.6425 1.293585,-3.206963 2.306091,-4.572346c0.339695,-0.461333 0.959938,-1.179282 1.148102,-1.33332c0.069325,-0.056017 0.125377,-0.139876 0.125296,-0.186355c-0.00013,-0.074367 -0.373697,-0.077714 -7.372136,-0.053345l-7.371998,0.02567l0.026115,14.919924z" fill="none" id="svg_2"/>
   <path d="m16.452588,1.28873c0.000065,0.037132 0.075862,0.125056 0.167378,0.189718c0.508097,0.374191 1.569505,1.744373 2.062785,2.657027c0.686182,1.278659 1.167667,2.655502 1.419153,4.079561c0.03181,0.166983 0.073198,0.403554 0.09864,0.533427c0.232258,1.243108 0.286635,3.498678 0.11557,4.80353c-0.018667,0.139309 -0.046651,0.357556 -0.059031,0.487561c-0.012388,0.125363 -0.046635,0.366839 -0.071557,0.534019c-0.028074,0.167191 -0.065497,0.394754 -0.084205,0.510856c-0.040486,0.27863 -0.212397,1.10077 -0.265668,1.277332c-0.021933,0.07434 -0.06263,0.232292 -0.093945,0.348438c-0.216003,0.84086 -0.617508,1.942289 -0.837508,2.300449c-0.050299,0.074439 -0.087958,0.1674 -0.087901,0.19989c0.000179,0.102112 0.097909,0.115696 0.182845,0.022571c0.46558,-0.507543 0.988071,-0.913171 1.658754,-1.286825c0.72735,-0.410983 1.28802,-0.612519 2.116682,-0.763932c0.816063,-0.146728 1.733422,-0.043168 2.648044,0.297117c0.126153,0.045976 0.25549,0.110506 0.290201,0.133592c0.034718,0.027728 0.094643,0.050727 0.135617,0.050584c0.040973,-0.000143 0.100906,0.027498 0.135633,0.059867c0.034727,0.032369 0.119923,0.087771 0.189319,0.120019c0.211349,0.101377 0.858255,0.549348 1.183369,0.822063c0.328266,0.272704 0.934499,0.892552 1.266128,1.285923c0.568501,0.671035 1.393264,1.893514 1.741164,2.579241c0.088559,0.176068 0.180205,0.314993 0.202267,0.314916c0.037822,-0.000132 0.041111,-1.722132 0.025155,-10.837944l-0.01897,-10.83779l-7.06002,0.024584c-6.218491,0.021654 -7.060004,0.033867 -7.059898,0.094206z" fill="none" id="svg_3"/>
   <path d="m16.279423,2.253862c-0.03142,0.055807 -0.194948,0.265243 -0.3585,0.460755c-0.443469,0.535314 -1.304835,1.810079 -1.493244,2.209903c-0.03454,0.074384 -0.100508,0.199934 -0.144495,0.278992c-0.043995,0.074417 -0.125649,0.241794 -0.185306,0.371964c-0.056513,0.125517 -0.169539,0.37655 -0.251169,0.557852c-0.298283,0.650846 -0.583602,1.505872 -0.799524,2.393146c-0.100134,0.41344 -0.115739,0.501683 -0.143788,0.682798c-0.01242,0.106797 -0.037415,0.232204 -0.053093,0.278674c-0.094091,0.264892 -0.220658,1.783097 -0.222355,2.613928c0.002543,1.452774 0.190871,2.807431 0.600012,4.268072c0.126876,0.459065 0.491169,1.506771 0.627224,1.807993c0.050632,0.115861 0.098104,0.227091 0.107608,0.254907c0.14573,0.426509 0.702249,1.454979 1.185766,2.191291c0.480373,0.740964 1.219615,1.722384 1.292106,1.722131c0.116616,-0.000406 0.73319,-0.675568 1.097872,-1.205966c0.414997,-0.595555 0.952215,-1.590702 1.171834,-2.16701c0.345129,-0.897007 0.542685,-1.473239 0.68675,-1.998228c0.021924,-0.078982 0.062654,-0.218368 0.09085,-0.315937c0.028196,-0.097569 0.050088,-0.195117 0.050039,-0.222965c-0.000049,-0.027849 0.018708,-0.116102 0.040632,-0.195084c0.047001,-0.157974 0.11262,-0.483106 0.196922,-0.938265c0.024946,-0.153256 0.06869,-0.371558 0.093701,-0.487682c0.025011,-0.116124 0.04367,-0.260075 0.043556,-0.325055c-0.000114,-0.06498 0.021624,-0.250715 0.046546,-0.417895c0.084124,-0.557271 0.123846,-1.272197 0.122172,-2.228336c-0.00212,-1.211419 -0.076204,-2.120891 -0.228741,-2.835148c-0.025426,-0.12059 -0.044556,-0.245843 -0.044621,-0.282975c-0.000179,-0.102112 -0.181237,-0.904458 -0.292224,-1.289314c-0.130028,-0.459054 -0.367647,-1.163731 -0.424542,-1.256363c-0.025279,-0.037044 -0.044279,-0.088034 -0.04432,-0.111241c-0.000089,-0.051056 -0.332287,-0.769329 -0.566324,-1.22802c-0.319412,-0.616205 -0.998729,-1.574626 -1.535566,-2.162224c-0.262103,-0.286859 -0.502053,-0.522739 -0.539875,-0.522607c-0.03467,0.000121 -0.091321,0.046733 -0.125901,0.097909z" fill="#ff00ff" id="svg_4"/>
   <path d="m9.011489,17.685142c-0.311963,0.038218 -0.482086,0.080584 -1.023886,0.258847c-0.771759,0.248686 -1.615579,0.743621 -2.361433,1.386742c-0.103855,0.08855 -0.245474,0.209721 -0.314716,0.26566c-0.069242,0.055939 -0.324074,0.321391 -0.566291,0.59144c-0.632284,0.703065 -1.122802,1.368505 -1.609901,2.187102c-0.116267,0.199989 -0.267139,0.437229 -0.330004,0.534919c-0.066017,0.097701 -0.119378,0.223207 -0.119289,0.274263c0.000097,0.055697 0.053987,0.231886 0.117315,0.398759c0.066472,0.16222 0.136128,0.342996 0.158288,0.398616c0.272281,0.699915 0.958113,1.778992 1.558141,2.454559c0.429489,0.481218 1.205984,1.137605 1.619284,1.372881c0.091491,0.050738 0.20823,0.119953 0.258723,0.156909c0.145153,0.096966 0.608873,0.327425 0.835949,0.410181c0.113538,0.041378 0.271241,0.10581 0.350101,0.142667c0.082012,0.036846 0.173471,0.069018 0.204989,0.068908c0.03467,-0.000121 0.151335,0.027322 0.264864,0.064058c0.696953,0.229647 1.784411,0.276917 2.63196,0.111514c0.270965,-0.052 0.519843,-0.117847 0.55132,-0.141164c0.031469,-0.027958 0.097624,-0.046755 0.144901,-0.046919c0.044125,-0.000154 0.148077,-0.033006 0.229959,-0.070423c0.07873,-0.037406 0.311776,-0.144972 0.51648,-0.238514c0.204696,-0.098184 0.377882,-0.191617 0.387297,-0.214857c0.009423,-0.018599 0.04406,-0.037285 0.07873,-0.037406c0.050429,-0.000176 0.286537,-0.158808 0.774423,-0.527184l0.132197,-0.102573l-0.01965,-0.422306c-0.019707,-0.454796 0.04207,-1.174441 0.132854,-1.52751c0.206637,-0.789771 0.426386,-1.291816 0.794236,-1.812943c0.393008,-0.553705 1.057045,-1.122278 1.425643,-1.216391c0.126015,-0.032929 0.210935,-0.135337 0.163544,-0.200153c-0.015791,-0.018511 -0.142115,-0.161957 -0.281062,-0.314642c-0.249479,-0.27762 -0.932005,-1.26852 -1.292374,-1.875299c-0.189676,-0.324243 -0.423348,-0.574069 -0.855745,-0.916033c-0.372432,-0.295758 -0.514433,-0.392734 -0.8678,-0.600371c-0.094651,-0.055368 -0.214541,-0.124573 -0.268179,-0.156876c-0.438579,-0.27232 -1.346824,-0.570854 -2.018327,-0.665986c-0.394072,-0.054326 -0.914118,-0.052515 -1.402541,0.009525z" fill="#ff00ff" id="svg_5"/>
   <path d="m22.693758,17.730902c-0.078762,0.01884 -0.233135,0.05651 -0.346559,0.080112c-0.431625,0.098974 -0.951322,0.300367 -1.322876,0.505886c-0.506952,0.280254 -0.765114,0.443605 -1.11766,0.704755c-0.893948,0.666845 -1.457152,1.221142 -1.966476,1.946986c-0.408718,0.581608 -0.663444,0.907399 -0.710721,0.907563c-0.015751,0.004696 -0.059811,0.041982 -0.100695,0.09318c-0.116365,0.144291 -0.078364,0.246271 0.117153,0.30593c0.091459,0.032172 0.182942,0.078268 0.201902,0.106051c0.01896,0.027783 0.05367,0.050869 0.078884,0.050782c0.053581,-0.000187 0.530225,0.411245 0.748121,0.651844c0.211576,0.231337 0.543409,0.740745 0.701608,1.088305c0.35119,0.764621 0.529258,1.659807 0.534165,2.66235l0.001016,0.580181l0.44182,0.323365c0.52072,0.38343 0.997096,0.641694 1.608943,0.866996c0.9367,0.349491 2.153391,0.400952 3.152055,0.137551c0.138614,-0.037615 0.296139,-0.075295 0.346551,-0.084753c0.157533,-0.033039 0.384291,-0.1313 0.97003,-0.41647c0.535358,-0.257146 1.212206,-0.709726 1.489077,-0.989179c0.066074,-0.065211 0.132164,-0.121139 0.144771,-0.121183c0.085098,-0.000296 0.824316,-0.833695 1.214196,-1.373465c0.396176,-0.544433 0.9396,-1.5953 1.184221,-2.292373c0.047041,-0.134767 0.097259,-0.25562 0.112993,-0.269599c0.059787,-0.055906 0.021681,-0.218225 -0.088925,-0.384933c-0.06635,-0.092599 -0.218059,-0.333427 -0.341336,-0.537223c-0.745968,-1.222753 -1.548295,-2.231802 -2.369062,-2.971581c-0.104172,-0.092467 -0.596567,-0.499203 -0.631269,-0.517648c-0.015775,-0.009228 -0.129378,-0.087738 -0.252436,-0.166214c-0.454403,-0.309397 -1.047444,-0.595104 -1.498386,-0.728136c-0.73475,-0.215591 -0.731598,-0.215602 -1.450199,-0.208458c-0.390814,0.006002 -0.772149,0.025896 -0.850903,0.049378z" fill="#ff00ff" id="svg_6"/>
   <path d="m16.672544,22.513453c-0.059852,0.018774 -0.354926,0.702099 -0.533636,1.241133c-0.16304,0.487923 -0.306447,1.38887 -0.305529,1.913354c0.000747,0.427014 0.144252,1.382659 0.248757,1.665425c0.019,0.05099 0.041185,0.120535 0.050705,0.157634c0.095163,0.34778 0.541012,1.172411 0.822123,1.514901c0.353765,0.435067 0.789289,0.763096 1.306582,0.988727c0.154552,0.064443 0.208083,0.036407 0.270802,-0.144829c0.250892,-0.715662 0.369921,-1.138451 0.463622,-1.626132c0.028122,-0.139342 0.06873,-0.34835 0.09059,-0.464463c0.021859,-0.116113 0.04324,-0.506072 0.048901,-0.872769c0.00848,-0.557007 0.001884,-0.724077 -0.052216,-1.020944c-0.155973,-0.876697 -0.330175,-1.363445 -0.680975,-1.905277c-0.192779,-0.296383 -0.549663,-0.712874 -0.729551,-0.84685c-0.268268,-0.207932 -0.558583,-0.406505 -0.586949,-0.406406c-0.018911,0.000066 -0.063077,-0.022988 -0.100955,-0.055346c-0.113627,-0.092434 -0.255572,-0.15692 -0.312271,-0.138157z" fill="#ff00ff" id="svg_7"/>
   <path d="m15.702587,22.971695c-0.516188,0.405606 -0.648352,0.526745 -0.865362,0.792065c-0.330248,0.395676 -0.496781,0.688669 -0.688147,1.199898c-0.219602,0.585591 -0.300639,1.105719 -0.299209,1.922615c0.001202,0.686935 0.052427,1.141622 0.1952,1.679536c0.034913,0.139123 0.076187,0.310714 0.09206,0.375639c0.012721,0.064936 0.038098,0.157678 0.057098,0.208668c0.01584,0.04636 0.095033,0.273516 0.174234,0.505315c0.107713,0.315246 0.158329,0.421823 0.211926,0.43092c0.066212,0.013694 0.601578,-0.23881 0.677083,-0.317978c0.018878,-0.018632 0.129029,-0.111845 0.245483,-0.20508c0.116454,-0.093235 0.236027,-0.205047 0.26748,-0.242288c0.028301,-0.03723 0.141522,-0.176869 0.251607,-0.307214c0.204428,-0.251352 0.242014,-0.386086 0.144097,-0.506423c-0.145291,-0.17587 -0.430375,-0.987137 -0.560662,-1.594717c-0.092158,-0.431337 -0.134512,-1.220241 -0.091362,-1.777369c0.033898,-0.441059 0.105561,-0.914739 0.18702,-1.193512c0.081435,-0.292697 0.219456,-0.669137 0.310557,-0.841189c0.204168,-0.399878 0.096926,-0.44592 -0.309103,-0.128885z" fill="#ff00ff" id="svg_8"/>
  </g>
 </g>
</svg>