<?xml version="1.0"?>
<svg width="70" height="60" xmlns="http://www.w3.org/2000/svg" xmlns:svg="http://www.w3.org/2000/svg" preserveAspectRatio="xMidYMid meet">
 <metadata>Created by potrace 1.10, written by Peter Selinger 2001-2011</metadata>
 <g class="layer">
  <title>Layer 1</title>
  <g fill="#ff42ef" id="svg_1">
   <path d="m-3.258387,30.601277l0.064418,29.512118l36.695068,-0.102465l36.695068,-0.102465l-0.016857,-7.722797c-0.016716,-7.658441 -0.016857,-7.722797 -0.179946,-7.722342c-0.106008,0.000296 -0.162949,0.064812 -0.162728,0.165944c0.001003,0.45969 -1.176497,2.706281 -2.038281,3.894695c-1.089427,1.501642 -3.75837,4.129345 -4.670666,4.591585c-0.089599,0.04622 -0.293159,0.184696 -0.447833,0.304648c-0.154694,0.110758 -0.431544,0.295409 -0.610722,0.397041c-0.179177,0.101633 -0.374624,0.221699 -0.431604,0.267827c-0.122096,0.101473 -1.620831,0.877943 -1.889707,0.979826c-0.114062,0.046288 -0.496981,0.203653 -0.855456,0.351755c-0.57029,0.240633 -1.311824,0.481744 -2.566829,0.843809c-0.203741,0.055732 -0.619418,0.148831 -0.921033,0.195643c-0.309769,0.046834 -0.58688,0.111965 -0.627592,0.13966c-0.040712,0.027695 -0.807031,0.121774 -1.687552,0.197783c-1.671363,0.142575 -3.587802,0.083569 -4.672867,-0.152441c-0.244754,-0.05448 -0.652638,-0.126892 -0.897352,-0.162984c-0.848325,-0.117151 -2.790491,-0.755299 -3.819016,-1.239701c-0.979559,-0.466152 -1.755175,-0.896097 -2.049298,-1.152704c-0.392157,-0.339078 -0.660732,-0.099287 -0.659267,0.57186c0.000321,0.147101 -0.056098,0.450656 -0.129026,0.662318c-0.22682,0.690173 -0.632195,1.766987 -0.81075,2.153628c-0.503229,1.077087 -0.868634,1.786035 -0.909406,1.786149c-0.032618,0.000091 -0.187653,-0.045445 -0.342708,-0.100176c-0.155035,-0.045536 -0.465085,-0.127415 -0.69351,-0.172747c-0.685235,-0.117607 -2.007602,-0.729903 -2.856931,-1.306745c-0.244995,-0.164805 -1.029408,-0.88893 -1.323712,-1.228281c-0.147141,-0.165079 -0.302377,-0.302553 -0.334995,-0.302462c-0.040772,0.000114 -0.236038,0.202924 -0.431203,0.451703c-0.731915,0.912236 -2.335915,2.029172 -3.411601,2.353961c-0.244473,0.074234 -0.578565,0.185493 -0.7334,0.231894c-0.154814,0.055595 -0.44012,0.102361 -0.619518,0.102862c-0.342487,0.000956 -0.342487,0.000956 -0.702869,-0.724352c-0.48316,-0.936425 -1.056902,-2.277127 -1.139209,-2.626264c-0.032959,-0.156204 -0.12332,-0.459349 -0.197212,-0.688989c-0.082046,-0.229617 -0.164394,-0.597142 -0.197513,-0.826896c-0.041515,-0.340057 -0.082468,-0.422687 -0.237443,-0.440642c-0.106048,-0.018092 -0.326038,0.065267 -0.488846,0.194436c-1.229256,0.9504 -4.814449,2.229164 -6.820045,2.418642c-0.269037,0.028333 -0.741855,0.09401 -1.059779,0.140867c-0.73364,0.121569 -2.609166,0.126806 -3.343308,0.018529c-0.30999,-0.054298 -0.848325,-0.117151 -1.182718,-0.143799c-0.595376,-0.044307 -0.815647,-0.089661 -2.447422,-0.489635c-0.881163,-0.218192 -2.031745,-0.582734 -2.431755,-0.783882c-0.146941,-0.073141 -0.326459,-0.127802 -0.408004,-0.127575c-0.07339,0.000205 -0.212156,-0.063765 -0.293862,-0.137087c-0.08986,-0.0733 -0.212317,-0.137315 -0.269398,-0.137156c-0.236479,0.00066 -2.424523,-1.20682 -3.331053,-1.838665c-1.968255,-1.382777 -3.888587,-3.225381 -4.845789,-4.656951c-0.122718,-0.183535 -0.26994,-0.385388 -0.335336,-0.458757c-0.057242,-0.073391 -0.335497,-0.532307 -0.621946,-1.009588c-0.597523,-1.028044 -1.105668,-2.20344 -1.106451,-2.561998c0.007091,-0.487294 2.430357,-3.592393 4.017125,-5.132198c1.01716,-0.986584 3.30447,-2.868518 3.793195,-3.118117c0.065155,-0.036957 0.236158,-0.147761 0.366429,-0.240064c0.439638,-0.323013 2.345534,-1.358047 3.05429,-1.672618c0.382918,-0.157365 0.798374,-0.351596 0.920531,-0.425488c0.130311,-0.073915 0.301434,-0.129556 0.382979,-0.129783c0.089699,-0.00025 0.277131,-0.055937 0.423751,-0.129897c0.562076,-0.268192 1.173299,-0.435388 2.999075,-0.817434c1.32044,-0.270309 5.17744,-0.308661 6.360398,-0.054536c0.962668,0.199577 2.961674,0.727239 3.345275,0.882464c1.591484,0.620739 2.391504,1.023035 3.175617,1.609252c0.285888,0.219854 0.571675,0.39374 0.628756,0.39358c0.228325,-0.000638 0.097071,-0.358832 -0.352769,-0.973564c-0.147242,-0.211048 -0.26998,-0.403776 -0.27004,-0.431357c-0.00006,-0.027581 -0.122859,-0.247891 -0.262026,-0.495737c-0.589248,-0.972904 -1.351767,-2.873904 -1.795519,-4.435622c-0.090421,-0.330727 -0.221776,-0.73489 -0.287373,-0.900196c-0.065597,-0.165306 -0.115005,-0.385821 -0.115226,-0.486953c-0.000241,-0.110326 -0.04977,-0.386003 -0.115527,-0.62486c-0.525959,-1.864885 -0.712802,-5.275287 -0.44135,-7.933071c0.071865,-0.698934 0.168254,-1.370355 0.208725,-1.508376c0.048646,-0.12885 0.080742,-0.36798 0.080401,-0.524275c0.007793,-0.165511 0.056218,-0.395493 0.121173,-0.524389c0.064955,-0.128895 0.11348,-0.312908 0.121414,-0.414063c-0.000622,-0.285008 0.566016,-2.198914 0.922785,-3.12849c1.248703,-3.24892 3.190876,-6.343481 5.688415,-9.044257c0.837923,-0.912532 2.367871,-2.332659 2.832013,-2.637353c0.171003,-0.110804 0.309267,-0.276679 0.309067,-0.368618c-0.000321,-0.147101 -0.921795,-0.153722 -18.184786,-0.105518l-18.184445,0.050777l0.064418,29.512118l-0.000001,0.000006z" fill="none" id="svg_2"/>
   <path d="m35.237846,1.1192c0.00016,0.073448 0.187129,0.247365 0.41287,0.375268c1.253319,0.740162 3.871484,3.450429 5.088255,5.255689c1.692599,2.529231 2.880275,5.252674 3.500614,8.06951c0.078466,0.330297 0.180557,0.798243 0.243314,1.055136c0.57291,2.45891 0.707041,6.920504 0.285074,9.501545c-0.046046,0.275559 -0.115075,0.707259 -0.145611,0.964412c-0.030557,0.247972 -0.115034,0.725621 -0.176509,1.056309c-0.069249,0.33071 -0.161561,0.780837 -0.207707,1.010491c-0.099866,0.551139 -0.523917,2.177361 -0.655322,2.526606c-0.054101,0.147047 -0.154488,0.459482 -0.231732,0.689222c-0.532814,1.66325 -1.523201,3.841914 -2.065873,4.550366c-0.124071,0.147243 -0.216965,0.331122 -0.216824,0.395389c0.000441,0.201981 0.241511,0.228851 0.451022,0.044646c1.148443,-1.003936 2.437267,-1.806283 4.091634,-2.545383c1.794147,-0.812938 3.177148,-1.211583 5.221201,-1.511083c2.012976,-0.290232 4.275818,-0.085388 6.531908,0.587707c0.311181,0.090941 0.630216,0.218584 0.715836,0.26425c0.08564,0.054847 0.233456,0.100339 0.334524,0.100057c0.101069,-0.000282 0.248904,0.054391 0.334564,0.118419c0.08566,0.064028 0.295812,0.173613 0.466991,0.237402c0.521333,0.200526 2.11705,1.086628 2.919007,1.626068c0.809731,0.539418 2.305121,1.765497 3.123148,2.543599c1.402317,1.32733 3.436753,3.745435 4.294915,5.101827c0.218448,0.348268 0.44451,0.623067 0.498931,0.622915c0.093294,-0.000261 0.101408,-3.406436 0.06205,-21.437821l-0.046793,-21.437517l-17.414893,0.048628c-15.3391,0.042832 -17.414853,0.06699 -17.414593,0.186342l-0.000001,0.000001z" fill="none" id="svg_3"/>
   <path d="m34.810701,3.028264c-0.077505,0.110388 -0.480877,0.52466 -0.88431,0.911389c-1.093901,1.05887 -3.218624,3.580399 -3.683371,4.371263c-0.085199,0.147134 -0.247922,0.395476 -0.356425,0.551856c-0.108522,0.147199 -0.309938,0.478278 -0.457093,0.735757c-0.1394,0.248276 -0.4182,0.744829 -0.619556,1.103451c-0.735772,1.287395 -1.439565,2.978666 -1.972179,4.733725c-0.247001,0.817799 -0.285492,0.992346 -0.354681,1.350598c-0.030637,0.211249 -0.092292,0.459308 -0.130964,0.551226c-0.232093,0.523965 -0.544295,3.527026 -0.548482,5.170438c0.006272,2.873637 0.47082,5.553194 1.480044,8.442392c0.312964,0.908046 1.211561,2.980444 1.547168,3.576272c0.124893,0.229176 0.241992,0.449194 0.265435,0.504214c0.359471,0.843649 1.732233,2.877999 2.924919,4.334448c1.184931,1.465652 3.008414,3.406934 3.187228,3.406434c0.287657,-0.000803 1.808554,-1.336296 2.708112,-2.385442c1.02367,-1.178027 2.348822,-3.146463 2.890552,-4.28642c0.851328,-1.774311 1.338637,-2.914117 1.694,-3.952563c0.054081,-0.156228 0.154548,-0.431939 0.224098,-0.624934c0.06955,-0.192995 0.12355,-0.385947 0.12343,-0.441033c-0.00012,-0.055086 0.046146,-0.229654 0.100227,-0.385882c0.115936,-0.312478 0.277798,-0.9556 0.485746,-1.855919c0.061535,-0.303145 0.169436,-0.734954 0.231131,-0.964651c0.061695,-0.229697 0.107721,-0.514437 0.10744,-0.64297c-0.000281,-0.128533 0.053339,-0.495923 0.114814,-0.826611c0.207507,-1.1023 0.305489,-2.516449 0.301361,-4.407724c-0.00523,-2.396228 -0.187972,-4.195195 -0.564234,-5.608019c-0.062717,-0.238531 -0.109905,-0.486286 -0.110066,-0.559734c-0.000441,-0.201981 -0.447055,-1.789048 -0.720826,-2.550307c-0.320739,-0.908024 -0.906873,-2.3019 -1.047215,-2.485128c-0.062356,-0.073274 -0.109224,-0.174134 -0.109324,-0.220039c-0.00022,-0.10099 -0.81965,-1.521758 -1.396947,-2.429066c-0.78789,-1.218874 -2.463557,-3.114663 -3.787768,-4.276953c-0.646526,-0.567417 -1.238411,-1.033996 -1.331705,-1.033735c-0.08552,0.000239 -0.22526,0.092439 -0.310559,0.193668l0,-0.000001z" fill="#ff00ff" id="svg_4"/>
   <path d="m16.882947,33.551859c-0.769516,0.075597 -1.189159,0.159398 -2.525612,0.512008c-1.903692,0.491909 -3.985135,1.470908 -5.824928,2.743024c-0.256178,0.175154 -0.60551,0.414836 -0.776308,0.525485c-0.170799,0.110649 -0.799391,0.635722 -1.396866,1.169888c-1.55965,1.390687 -2.769607,2.706949 -3.971128,4.326161c-0.286795,0.395584 -0.658949,0.864855 -0.814019,1.058089c-0.162844,0.193256 -0.294469,0.441511 -0.294249,0.542501c0.00024,0.110171 0.133169,0.458678 0.28938,0.788758c0.163966,0.320877 0.335787,0.678457 0.390449,0.788476c0.671634,1.384456 2.363371,3.518907 3.843452,4.855201c1.059417,0.951866 2.974791,2.250221 3.994273,2.715605c0.225681,0.100361 0.513638,0.237272 0.638191,0.310372c0.358048,0.191801 1.501902,0.647658 2.062028,0.811352c0.280063,0.081847 0.669068,0.209295 0.863591,0.2822c0.202297,0.072883 0.427898,0.13652 0.505643,0.136303c0.08552,-0.000239 0.373297,0.054044 0.653339,0.12671c1.719168,0.45425 4.401593,0.547751 6.492233,0.220578c0.668387,-0.102857 1.282292,-0.233106 1.359937,-0.279228c0.077625,-0.055303 0.240809,-0.092482 0.357427,-0.092808c0.108843,-0.000304 0.365261,-0.065287 0.567238,-0.139299c0.194202,-0.07399 0.769055,-0.286759 1.273997,-0.471789c0.504922,-0.194211 0.932119,-0.379024 0.955342,-0.424994c0.023243,-0.036789 0.108683,-0.073752 0.194202,-0.07399c0.124392,-0.000347 0.706799,-0.314128 1.910264,-1.042788l0.326088,-0.202893l-0.048471,-0.835336c-0.048611,-0.899603 0.103773,-2.323084 0.327711,-3.021466c0.509711,-1.562194 1.051762,-2.555256 1.959134,-3.586063c0.969429,-1.095247 2.607404,-2.219903 3.516621,-2.406062c0.31084,-0.065135 0.520311,-0.267702 0.403413,-0.39591c-0.038953,-0.036615 -0.350554,-0.320356 -0.693294,-0.622372c-0.615388,-0.549142 -2.29897,-2.509176 -3.187889,-3.709406c-0.467873,-0.641364 -1.044269,-1.135529 -2.110859,-1.811945c-0.918674,-0.585019 -1.268948,-0.776842 -2.140594,-1.187553c-0.233476,-0.10952 -0.529207,-0.246409 -0.661514,-0.310307c-1.081839,-0.538658 -3.322199,-1.129168 -4.97859,-1.317344c-0.972054,-0.107458 -2.254847,-0.103876 -3.459635,0.018841l0.000003,0.000001z" fill="#ff00ff" id="svg_5"/>
   <path d="m50.632887,33.642375c-0.194282,0.037267 -0.575073,0.111778 -0.854855,0.158464c-1.064686,0.195774 -2.346618,0.594137 -3.263128,1.00066c-1.250493,0.554352 -1.887301,0.877466 -2.756924,1.39403c-2.205094,1.319041 -3.594346,2.41546 -4.85069,3.851205c-1.008181,1.150441 -1.636513,1.794866 -1.753131,1.795191c-0.038852,0.009289 -0.147535,0.083041 -0.248383,0.184314c-0.287035,0.285413 -0.193301,0.487133 0.288979,0.605139c0.225601,0.063637 0.451262,0.154817 0.498029,0.209772c0.046767,0.054955 0.132387,0.100621 0.194583,0.100448c0.132167,-0.000369 1.307901,0.813457 1.845384,1.289369c0.521894,0.457593 1.340421,1.465218 1.73065,2.152704c0.866277,1.512447 1.305517,3.283155 1.31762,5.266218l0.002505,1.147619l1.089834,0.639627c1.284457,0.758437 2.459529,1.269292 3.968765,1.714947c2.310551,0.691305 5.311751,0.793096 7.775147,0.272081c0.341918,-0.074403 0.730483,-0.148936 0.854835,-0.167645c0.388585,-0.065352 0.947929,-0.259715 2.392764,-0.823791c1.320564,-0.508643 2.990139,-1.403862 3.673093,-1.95663c0.162984,-0.128989 0.326008,-0.239616 0.357106,-0.239703c0.209912,-0.000586 2.033333,-1.649078 2.995048,-2.71676c0.977243,-1.076906 2.317704,-3.155557 2.921109,-4.534392c0.116036,-0.266573 0.239907,-0.505625 0.27872,-0.533277c0.147475,-0.110584 0.05348,-0.431657 -0.219349,-0.761411c-0.163665,-0.183163 -0.537884,-0.65953 -0.841971,-1.062646c-1.840074,-2.418647 -3.819167,-4.41458 -5.843745,-5.877888c-0.256959,-0.182903 -1.471546,-0.98744 -1.557146,-1.023925c-0.038913,-0.018253 -0.319135,-0.173548 -0.622682,-0.328777c-1.120872,-0.611998 -2.583721,-1.177135 -3.696057,-1.440278c-1.812402,-0.426446 -1.804627,-0.426468 -3.577195,-0.412338c-0.964019,0.011873 -1.904654,0.051223 -2.098916,0.097671l0.000001,0.000002z" fill="#ff00ff" id="svg_6"/>
   <path d="m35.780409,43.102423c-0.147635,0.037136 -0.875493,1.388777 -1.316315,2.455004c-0.40217,0.965129 -0.75591,2.747231 -0.753645,3.784679c0.001844,0.844647 0.355825,2.734946 0.613606,3.294268c0.046867,0.10086 0.10159,0.238422 0.125073,0.311805c0.234738,0.68792 1.334511,2.319068 2.027925,2.996526c0.872628,0.860578 1.946933,1.509429 3.222934,1.955736c0.381231,0.12747 0.513278,0.072015 0.667986,-0.286476c0.618874,-1.415603 0.912482,-2.251894 1.143613,-3.216545c0.069369,-0.275624 0.169536,-0.689049 0.223457,-0.918725c0.053921,-0.229676 0.106659,-1.001027 0.120625,-1.726366c0.020919,-1.101779 0.004648,-1.43225 -0.128801,-2.019462c-0.384738,-1.734136 -0.81444,-2.696941 -1.679755,-3.768703c-0.475527,-0.586257 -1.35585,-1.410089 -1.799578,-1.675099c-0.661735,-0.411297 -1.377851,-0.804081 -1.447822,-0.803886c-0.046647,0.00013 -0.15559,-0.045471 -0.249025,-0.109477c-0.280283,-0.182837 -0.630416,-0.310394 -0.770277,-0.273279l-0.000001,0z" fill="#ff00ff" id="svg_7"/>
   <path d="m33.387825,44.008843c-1.273276,0.802303 -1.599284,1.041919 -2.134582,1.566731c-0.81462,0.78266 -1.225406,1.362211 -1.697447,2.373439c-0.54169,1.158319 -0.741583,2.18715 -0.738056,3.802997c0.002966,1.358781 0.129322,2.258166 0.481499,3.32218c0.086121,0.27519 0.187931,0.614603 0.227084,0.743027c0.031379,0.128446 0.093975,0.311892 0.140843,0.412752c0.039073,0.091701 0.234418,0.541025 0.429782,0.99953c0.265696,0.623566 0.390549,0.834381 0.522756,0.852374c0.163325,0.027087 1.483909,-0.472375 1.670156,-0.628972c0.046567,-0.036854 0.318274,-0.221233 0.60553,-0.405655c0.287256,-0.184422 0.582206,-0.40559 0.659791,-0.479255c0.06981,-0.073643 0.349091,-0.349853 0.620638,-0.607679c0.504261,-0.497182 0.596974,-0.76369 0.355443,-1.001722c-0.358389,-0.347877 -1.061601,-1.95259 -1.382981,-3.154404c-0.227324,-0.853199 -0.3318,-2.413678 -0.225361,-3.515696c0.083616,-0.872429 0.260385,-1.809385 0.46132,-2.360807c0.200875,-0.578964 0.54133,-1.323576 0.766049,-1.663901c0.503619,-0.790973 0.239086,-0.882044 -0.762463,-0.254939l-0.000001,0z" fill="#ff00ff" id="svg_8"/>
  </g>
 </g>
</svg>